<svg xmlns="http://www.w3.org/2000/svg" viewBox="488 316 133 148">
  <path fill="#00033D" d="M583.872 365.062C603.228 376.639 618.027 431.886 585.114 444.567C544.201 460.331 550.034 407.457 550.034 407.457C550.347 415.382 557.671 415.234 561.169 414.704C563.752 414.313 566.418 414.595 568.773 415.725C570.003 416.317 571.227 417.158 572.214 418.354C575.502 422.347 581.37 421.356 584.883 417.251C586.097 415.834 586.38 413.87 585.131 412.484L547.289 371.905C544.268 377.583 546.869 384.253 546.869 384.253C546.869 384.253 508.999 408.619 524.336 447.886C524.336 447.886 504.045 444.465 496.94 426.328C489.835 408.192 495.074 390.803 510.78 378.274C526.487 365.747 547.802 347.23 539.385 320.113C539.385 320.113 583.964 330.71 571.972 376.547C571.972 376.547 580.934 373.887 583.872 365.062"/>
</svg>
